<svg xmlns="http://www.w3.org/2000/svg" width="230" height="115" viewBox="0 0 230 115"><rect width="100%" height="100%" fill="#DDDDDD"/><path fill="#999999" d="M54.265 65.145h5.75q.62 0 .99.34.36.35.36.93v2.29h-15.38v-1.27q0-.39.17-.81.16-.43.52-.77l6.8-6.82q.85-.87 1.53-1.66.67-.79 1.12-1.57.45-.77.69-1.57.24-.8.24-1.68 0-.81-.23-1.42-.23-.61-.66-1.03-.43-.42-1.02-.63-.6-.21-1.34-.21-.69 0-1.27.2-.58.19-1.03.54-.45.35-.76.81-.31.47-.46 1.03-.27.71-.68.94-.42.23-1.21.11l-2.02-.36q.23-1.61.9-2.83.67-1.21 1.67-2.03 1-.81 2.29-1.22 1.3-.41 2.78-.41 1.55 0 2.84.46 1.29.45 2.2 1.29.92.84 1.43 2.02.51 1.17.51 2.62 0 1.23-.37 2.29-.36 1.05-.97 2.01-.61.96-1.44 1.86-.82.9-1.72 1.83l-5.05 5.16q.73-.21 1.45-.33.72-.11 1.37-.11Zm12.22-12.25-2.02-.36q.23-1.61.9-2.83.67-1.21 1.67-2.03 1-.81 2.29-1.22 1.29-.41 2.78-.41 1.55 0 2.8.44 1.25.44 2.13 1.23.88.78 1.36 1.83.47 1.06.47 2.28 0 1.07-.24 1.88-.24.82-.69 1.42-.45.61-1.12 1.03-.66.41-1.5.69 2.02.64 3.01 1.94.99 1.3.99 3.27 0 1.67-.62 2.96t-1.67 2.16q-1.06.88-2.45 1.33-1.38.45-2.93.45-1.69 0-2.95-.39-1.25-.39-2.18-1.15-.93-.76-1.58-1.86-.66-1.1-1.12-2.54l1.69-.7q.67-.28 1.25-.14.58.13.84.62.28.55.61 1.07.34.53.8.94.47.41 1.1.67.62.25 1.49.25.98 0 1.71-.31.72-.32 1.21-.83t.73-1.14q.24-.63.24-1.27 0-.8-.17-1.46-.17-.66-.71-1.12-.54-.47-1.56-.73-1.02-.27-2.72-.27v-2.72q1.41-.02 2.34-.27.93-.25 1.48-.69.55-.44.77-1.06.21-.62.21-1.36 0-1.58-.88-2.41-.88-.82-2.35-.82-.69 0-1.26.2-.57.19-1.03.54-.46.35-.77.81-.31.47-.46 1.03-.27.71-.69.94-.43.23-1.2.11Zm31.49 4.6q0 2.93-.63 5.1-.62 2.16-1.73 3.57-1.11 1.41-2.62 2.1-1.51.69-3.26.69-1.76 0-3.25-.69-1.5-.69-2.6-2.1-1.1-1.41-1.72-3.57-.62-2.17-.62-5.1 0-2.94.62-5.1.62-2.15 1.72-3.56 1.1-1.41 2.6-2.1 1.49-.69 3.25-.69 1.75 0 3.26.69 1.51.69 2.62 2.1 1.11 1.41 1.73 3.56.63 2.16.63 5.1Zm-3.95 0q0-2.43-.36-4.03-.35-1.59-.95-2.54-.6-.94-1.37-1.32-.78-.38-1.61-.38-.83 0-1.59.38-.77.38-1.36 1.32-.59.95-.94 2.54-.35 1.6-.35 4.03 0 2.44.35 4.03.35 1.6.94 2.55.59.94 1.36 1.32.76.38 1.59.38.83 0 1.61-.38.77-.38 1.37-1.32.6-.95.95-2.55.36-1.59.36-4.03Zm28.57 6.08-2.03 2-5.26-5.26-5.3 5.29-2.03-2 5.3-5.32-5.05-5.05 2.01-2.01 5.06 5.05 5.02-5.02 2.04 2.01-5.03 5.04 5.27 5.27Zm21.22 2.26h4.03v2.87h-12.4v-2.87h4.54v-13.06q0-.78.04-1.6l-3.22 2.7q-.28.21-.55.27-.27.05-.51.01-.24-.05-.43-.17-.18-.11-.28-.25l-1.21-1.66 6.84-5.81h3.15v19.57Zm17.98 0h4.03v2.87h-12.4v-2.87h4.54v-13.06q0-.78.04-1.6l-3.22 2.7q-.28.21-.55.27-.27.05-.51.01-.24-.05-.43-.17-.18-.11-.28-.25l-1.21-1.66 6.84-5.81h3.15v19.57Zm13.05-16.07-.79 4.66q.74-.15 1.42-.22.68-.07 1.32-.07 1.77 0 3.12.53 1.34.52 2.26 1.45.91.93 1.38 2.18.46 1.25.46 2.69 0 1.78-.63 3.26-.62 1.47-1.74 2.51-1.11 1.05-2.64 1.62-1.53.58-3.33.58-1.05 0-2-.22-.94-.22-1.77-.58-.83-.36-1.54-.84-.7-.47-1.26-1l1.18-1.62q.37-.53.98-.53.38 0 .79.25.4.24.92.54.52.29 1.22.54.71.25 1.7.25 1.05 0 1.86-.34t1.34-.95q.54-.62.81-1.46.27-.85.27-1.84 0-1.83-1.06-2.86-1.06-1.03-3.14-1.03-1.6 0-3.27.59l-2.39-.68 1.86-10.88h11.07v1.62q0 .83-.51 1.34-.52.51-1.74.51h-6.15Z"/></svg>